<?xml version="1.0" encoding="utf-8"?>
<!-- Generator: Adobe Illustrator 25.0.1, SVG Export Plug-In . SVG Version: 6.00 Build 0)  -->
<svg version="1.1" id="Layer_1" xmlns="http://www.w3.org/2000/svg" xmlns:xlink="http://www.w3.org/1999/xlink" x="0px" y="0px"
	 viewBox="0 0 59.3 68.6" style="enable-background:new 0 0 59.3 68.6;" xml:space="preserve">
<style type="text/css">
	.st0{fill:none;stroke:#000000;stroke-width:5;stroke-miterlimit:10;}
	.st1{fill:none;stroke:#000000;stroke-width:5;stroke-linejoin:round;}
	.st2{fill:none;stroke:#000000;stroke-width:4;stroke-linecap:round;stroke-linejoin:round;}
</style>
<g id="Layer_2_1_">
	<g id="Layer_1-2">
		<path class="st0" d="M42.3,24c10.1,24.4,6.6,38.9-5,42.1H15.1C-0.2,62,0,45.7,7.4,24c-0.5-2.2-0.5-4.6,0-6.8h34.9
			C43.1,19.4,43.1,21.8,42.3,24z"/>
		<path class="st1" d="M8.2,17.2C6,14.6,5.5,8.6,5.1,2.5c10.5,4.9,22.5,7.7,35.9,8.2c1.6,2.3,2,4.5,0,6.4H8.2z"/>
		<polyline class="st2" points="42.9,19.6 52,19.6 57.3,29 		"/>
		<path d="M48.8,41.7c-5.9,0-36.6,0-45.9,0.6C1.7,52.8,4.6,62.1,15.1,66.1h22.2C45.9,63.7,50.1,54.1,48.8,41.7z"/>
	</g>
</g>
</svg>
