<svg xmlns="http://www.w3.org/2000/svg" width="59.28" height="68.58" viewBox="0 0 59.28 68.58">
  <defs>
    <style>
      .cls-1, .cls-2, .cls-3 {
        fill: none;
        stroke: #000;
      }

      .cls-1 {
        stroke-miterlimit: 10;
      }

      .cls-1, .cls-2 {
        stroke-width: 5px;
      }

      .cls-2, .cls-3 {
        stroke-linejoin: round;
      }

      .cls-3 {
        stroke-linecap: round;
        stroke-width: 4px;
      }
    </style>
  </defs>
  <g id="Layer_2" data-name="Layer 2">
    <g id="Layer_1-2" data-name="Layer 1">
      <path class="cls-1" d="M42.27,24c10.07,24.4,6.62,38.93-5,42.11H15.09C-.24,62,0,45.72,7.39,24a16.07,16.07,0,0,1,0-6.8H42.27A9.14,9.14,0,0,1,42.27,24Z"/>
      <path class="cls-2" d="M8.18,17.17C6,14.57,5.51,8.59,5.11,2.5Q20.87,9.88,41,10.75c1.63,2.31,2,4.49,0,6.42Z"/>
      <polyline class="cls-3" points="42.87 19.59 52 19.59 57.28 29.04"/>
      <path d="M47.83,43.3c-6.29,1.93-12.93,1.75-19.83,0a48.58,48.58,0,0,0-25.25,0C1.57,53.9,4.64,62.09,15.09,66.08H37.28C45.93,63.67,49.16,55.78,47.83,43.3Z"/>
    </g>
  </g>
</svg>
